<svg width="192" height="192" viewBox="0 0 192 192" fill="none" xmlns="http://www.w3.org/2000/svg">
  <rect width="192" height="192" rx="24" fill="#6366f1"/>
  <path d="M96 48C123.614 48 144 68.386 144 96C144 123.614 123.614 144 96 144C68.386 144 48 123.614 48 96C48 68.386 68.386 48 96 48Z" fill="white"/>
  <path d="M96 72C88.268 72 82 78.268 82 86V106C82 113.732 88.268 120 96 120H106C113.732 120 120 113.732 120 106V86C120 78.268 113.732 72 106 72H96ZM96 82H106C108.209 82 110 83.791 110 86V106C110 108.209 108.209 110 106 110H96C93.791 110 92 108.209 92 106V86C92 83.791 93.791 82 96 82Z" fill="#6366f1"/>
  <text x="96" y="105" text-anchor="middle" fill="#6366f1" font-family="Arial, sans-serif" font-size="24" font-weight="bold">₹</text>
</svg>