<?xml version="1.0" encoding="utf-8"?>
<!-- Generator: Adobe Illustrator 27.5.0, SVG Export Plug-In . SVG Version: 6.00 Build 0)  -->
<svg version="1.1" xmlns="http://www.w3.org/2000/svg" xmlns:xlink="http://www.w3.org/1999/xlink" x="0px" y="0px"
	 viewBox="0 0 450 450" style="enable-background:new 0 0 450 450;" xml:space="preserve">
<g id="background">
</g>
<g id="borrow_money">
	<g>
		<path style="fill:#56BCBF;" d="M441.941,225.003c0,119.811-97.127,216.935-216.941,216.935
			c-119.813,0-216.941-97.125-216.941-216.935C8.059,105.189,105.187,8.061,225,8.061
			C344.813,8.061,441.941,105.189,441.941,225.003z"/>
		<path style="fill:#44403E;" d="M355.946,183.208l82.351,2.414c-7.902-42.29-27.426-80.239-56.033-110.055h-26.319V183.208z"/>
		<path style="fill:#F47747;" d="M130.724,280.681L9.933,253.645c5.083,39.482,21.149,75.546,44.506,105.43l53.978,19.172
			L130.724,280.681z"/>
		<path style="fill:#F6B968;" d="M217.88,175.306c-0.385,3.868,3.145,7.38,7.877,7.851l0,0c4.728,0.466,8.875-2.287,9.26-6.155
			l6.079-61.393c0.384-3.866-3.146-7.383-7.874-7.851l0,0c-4.737-0.468-8.882,2.284-9.262,6.155L217.88,175.306z"/>
		<path style="fill:#EEAA59;" d="M218.126,175.505l-0.028-64.009c0.2-2.074,7.614-4.515,9.49-5.623l-5.773,70.623
			c-0.081,0.854-1.112,4.016-0.932,4.819C219.012,179.837,217.903,177.738,218.126,175.505z"/>
		<path style="fill:#F6B968;" d="M201.671,184.984c-0.225,3.877,3.439,7.254,8.188,7.529l0,0c4.747,0.276,8.782-2.647,9.008-6.524
			l3.966-62.505c0.224-3.878-3.798-6.334-8.546-6.613l0,0c-4.747-0.276-8.778,2.643-9.007,6.524L201.671,184.984z"/>
		<path style="fill:#EEAA59;" d="M201.692,184.716l3.455-63.122c0.203-2.07,4.13-2.072,6.01-3.181l-6.898,69.627
			c-0.083,0.854,0.009,1.685,0.188,2.488C202.577,189.049,201.47,186.949,201.692,184.716z"/>
		<path style="fill:#F6B968;" d="M184.337,186.414c-0.233,3.88,3.436,7.256,8.182,7.533l0,0c4.749,0.278,8.789-2.643,9.014-6.525
			l3.6-61.582c0.235-3.886-3.433-7.258-8.183-7.535l0,0c-4.744-0.277-8.778,2.643-9.008,6.523L184.337,186.414z"/>
		<path style="fill:#33302F;" d="M388.196,168.643c0.621-0.583,1.36-0.971,2.124-1.203l0.304-5.089
			c0.057-1.049,0.954-1.844,2.009-1.788c1.04,0.062,1.844,0.961,1.782,2.01l-0.304,5.076c0.672,0.292,1.29,0.719,1.815,1.287
			c2.057,2.219,1.925,5.68-0.285,7.731c-2.221,2.057-5.684,1.928-7.735-0.288C385.846,174.16,385.978,170.698,388.196,168.643z"/>
		<path style="fill:#33302F;" d="M406.529,167.194l0.298-5.098c0.062-1.045,0.957-1.842,2.006-1.781
			c1.046,0.061,1.847,0.96,1.785,2.004l-0.298,5.08c0.664,0.289,1.285,0.714,1.815,1.284c2.056,2.214,1.917,5.682-0.288,7.734
			c-2.221,2.054-5.684,1.924-7.732-0.295c-2.065-2.207-1.928-5.676,0.285-7.728C405.031,167.812,405.757,167.426,406.529,167.194z"
			/>
		<path style="fill:#33302F;" d="M422.959,166.875l0.298-5.094c0.059-1.046,0.954-1.843,2.003-1.784
			c1.051,0.062,1.85,0.96,1.788,2.008l-0.296,5.075c0.662,0.292,1.283,0.717,1.815,1.284c2.054,2.217,1.92,5.685-0.296,7.742
			c-2.213,2.055-5.681,1.925-7.732-0.295c-2.057-2.219-1.928-5.677,0.29-7.736C421.456,167.493,422.187,167.109,422.959,166.875z"/>
		<path style="fill:#22201F;" d="M411.471,169.269c2.038,2.195,1.906,5.615-0.285,7.648c-2.191,2.033-5.614,1.902-7.643-0.281
			c-2.03-2.199-1.906-5.616,0.288-7.649C406.023,166.958,409.435,167.087,411.471,169.269z"/>
		<path style="fill:#22201F;" d="M427.766,169.072c2.03,2.194,1.909,5.616-0.285,7.652c-2.188,2.03-5.614,1.897-7.646-0.288
			c-2.024-2.197-1.898-5.616,0.293-7.646C422.316,166.758,425.736,166.889,427.766,169.072z"/>
		<path style="fill:#22201F;" d="M395.312,169.475c2.038,2.193,1.909,5.612-0.285,7.642c-2.186,2.035-5.608,1.906-7.641-0.278
			c-2.033-2.197-1.906-5.614,0.282-7.646C389.86,167.161,393.285,167.288,395.312,169.475z"/>
		<path style="fill:#FFCC90;" d="M242.392,88.39c-4.804,1.695-61.122,32.063-62.683,40.185c-1.329,6.899-0.827,49.78-0.472,61.575
			c0.01,0.374,0,1.479,0,1.479c0,4.684,4.295,8.472,9.602,8.472c5.298,0,9.596-3.788,9.596-8.472V142.37
			c0.57-1.617,1.1-2.725,1.602-3.155c3.275-2.811,30.665-15.652,43.793-16.527l16.338-18.202l-17.188-16.219
			C242.728,88.306,242.513,88.347,242.392,88.39z"/>
		<path style="fill:#FFE0BC;" d="M185.749,192.629c0,0-1.274,0.633-2.939,0.648l0,0c-0.003,0.004-0.008-0.003-0.014,0.007
			c-0.008-0.007-0.011,0-0.016-0.007l0,0c-1.663,0.009-2.992-0.6-2.992-0.6c-0.187-3.993-0.5-9.967,0.543-12.29
			c0.46-1.035,1.156-1.365,1.797-1.335l0.007-0.008c0.001-0.005,0.007,0.003,0.009,0.003c0.005,0,0.015,0,0.019-0.008v0.011
			c0.633-0.043,1.366,0.278,1.923,1.305C185.338,182.654,185.565,188.634,185.749,192.629z"/>
		<path style="fill:#FFE0BC;" d="M181.369,126.725c-0.187,0.293-0.092,0.694,0.2,0.893l3.423,2.336
			c0.294,0.2,0.686,0.126,0.87-0.163l0,0c0.184-0.292,0.09-0.692-0.208-0.891l-3.412-2.337
			C181.942,126.358,181.556,126.435,181.369,126.725L181.369,126.725z"/>
		<path style="fill:#FFE0BC;" d="M179.991,128.915c-0.184,0.297-0.094,0.697,0.194,0.901l3.42,2.334
			c0.3,0.2,0.687,0.129,0.872-0.163l0,0c0.181-0.292,0.09-0.691-0.207-0.891l-3.416-2.339
			C180.555,128.553,180.166,128.63,179.991,128.915L179.991,128.915z"/>
		
			<rect x="170.793" y="104.331" transform="matrix(0.1783 -0.984 0.984 0.1783 -17.7935 369.3626)" style="fill:#C1E4EA;" width="82.923" height="182.007"/>
		<path style="fill:#2A7B6D;" d="M287.917,244.823l-163.882-29.691l12.554-69.286l163.881,29.692L287.917,244.823z M131.389,210.035
			l151.431,27.438l10.302-56.839l-151.434-27.441L131.389,210.035z"/>
		<path style="fill:#2A7B6D;" d="M171.135,187.885c-1.043,5.786-6.583,9.621-12.369,8.575c-5.782-1.05-9.62-6.586-8.571-12.368
			c1.047-5.788,6.584-9.624,12.368-8.575C168.347,176.563,172.185,182.099,171.135,187.885z"/>
		<path style="fill:#2A7B6D;" d="M274.313,206.584c-1.048,5.782-6.584,9.617-12.365,8.571c-5.788-1.05-9.625-6.582-8.579-12.367
			c1.051-5.787,6.584-9.62,12.367-8.575C271.52,195.258,275.359,200.795,274.313,206.584z"/>
		<path style="fill:#2A7B6D;" d="M236.689,199.76c-2.447,13.496-15.366,22.45-28.86,20.006
			c-13.495-2.444-22.455-15.365-20.007-28.861c2.444-13.494,15.365-22.445,28.86-20.003
			C230.173,173.349,239.13,186.262,236.689,199.76z"/>
		<path style="fill:#FFCC90;" d="M242.981,88.268l0.85,34.42c2.721-0.177,4.842,0.143,5.993,1.183
			c8.794,7.964,7.837,14.479,1.506,24.66c-3.694,5.944-8.7,11.808-14.691,22.997c-13.209,24.702-4.221,25.645,0.385,28.573
			c8.281,5.271,22.084-25.434,33.508-33.88c15.451-11.418,35.952-25.594,35.952-25.594h49.464V88.39
			C355.946,88.39,252.745,86.784,242.981,88.268z"/>
		<path style="fill:#FFE0BC;" d="M242.991,195.338c0,0-2.455-1.101-5.105-3.13l0,0c-0.013-0.007-0.013-0.012-0.024-0.018
			c-0.003-0.011-0.016-0.011-0.021-0.021l0,0c-2.646-2.032-4.344-4.118-4.344-4.118c2.429-3.178,6.005-7.975,9.242-8.411
			c1.433-0.195,2.775,0.421,3.767,1.223h0.011c0.011,0,0.011,0.009,0.016,0.016c0.008,0.005,0.019,0.015,0.029,0.015l-0.003,0.008
			c1.032,0.749,1.976,1.885,2.161,3.324C249.137,187.465,245.425,192.164,242.991,195.338z"/>
		<path style="fill:#FFE0BC;" d="M252.366,161.347c-0.183,0.292,0.148,0.837,0.756,1.233l6.977,4.514
			c0.603,0.39,1.245,0.469,1.428,0.187l0,0c0.194-0.29-0.151-0.842-0.758-1.233l-6.961-4.515
			C253.202,161.136,252.557,161.057,252.366,161.347L252.366,161.347z"/>
		<path style="fill:#FFE0BC;" d="M250.963,163.523c-0.191,0.294,0.15,0.845,0.745,1.235l6.972,4.514
			c0.608,0.39,1.253,0.476,1.438,0.191l0,0c0.186-0.295-0.153-0.847-0.758-1.24l-6.969-4.517
			C251.786,163.319,251.14,163.235,250.963,163.523L250.963,163.523z"/>
		<rect x="328.853" y="78.465" style="fill:#F2EBEC;" width="27.093" height="82.57"/>
		<path style="fill:#F6B968;" d="M244.588,320.507c-2.043,3.374-6.436,4.447-9.811,2.406l0,0c-3.374-2.049-4.449-6.447-2.401-9.819
			l14.08-23.205c2.046-3.374,6.439-4.452,9.813-2.406l0,0c3.374,2.043,4.444,6.439,2.401,9.811L244.588,320.507z"/>
		<path style="fill:#F6B968;" d="M215.344,334.713c-3.634,1.541-17.02,3.667-18.555,0.027l-3.163-3.369
			c-1.541-3.629-6.507-15.389-3.265-13.142c16.49,11.44,44.424-7.246,44.424-7.246c3.632-1.533,7.824,0.164,9.356,3.801l0,0
			c1.54,3.632-0.161,7.824-3.796,9.359L215.344,334.713z"/>
		<path style="fill:#EEAA59;" d="M223.315,328.379l23.523-13.01c0.804-0.441,1.476-1.016,2.016-1.675
			c0.734-0.621,1.341-1.376,1.766-2.28l8.267-20.947c0.567-1.183-11.682,19.051-11.682,19.051l-36.21,22.275
			C215.529,331.328,221.218,329.535,223.315,328.379z"/>
		<path style="fill:#F6B968;" d="M262.163,317.799c-1.632,3.586-5.866,5.178-9.458,3.543l0,0c-3.592-1.632-5.181-5.864-3.549-9.461
			l11.233-24.713c1.635-3.589,5.869-5.178,9.456-3.546l0,0c3.595,1.626,5.181,5.867,3.554,9.461L262.163,317.799z"/>
		<path style="fill:#F6B968;" d="M234.801,335.369c-3.428,1.957-16.464,5.654-18.417,2.229l-3.544-2.976
			c-1.953-3.428,1.48-4.323,4.906-6.286l33.552-18.831c3.425-1.96,7.789-0.769,9.746,2.662l0,0c1.963,3.428,0.761,7.789-2.662,9.746
			L234.801,335.369z"/>
		<path style="fill:#EEAA59;" d="M235.013,329.14l23.525-13.002c0.804-0.444,1.473-1.022,2.019-1.675
			c0.726-0.624,1.333-1.39,1.766-2.291l11.292-23.724c0.567-1.18,0.726-2.425,0.583-3.629l-15.293,25.464l-36.215,22.275
			C227.23,332.092,232.914,330.298,235.013,329.14z"/>
		<path style="fill:#F6B968;" d="M274.525,317.934c-1.635,3.584-5.864,5.173-9.458,3.543l0,0c-3.592-1.629-5.181-5.864-3.551-9.458
			l11.236-24.71c1.632-3.598,5.866-5.184,9.458-3.549l0,0c3.592,1.624,5.178,5.864,3.549,9.461L274.525,317.934z"/>
		<path style="fill:#F6B968;" d="M247.171,335.504c-3.43,1.957-16.465,5.657-18.424,2.226l-3.541-2.979
			c-1.954-3.423,1.481-4.326,4.904-6.275l33.553-18.836c3.422-1.957,7.789-0.764,9.738,2.664l0,0
			c1.963,3.422,0.766,7.786-2.656,9.743L247.171,335.504z"/>
		<path style="fill:#FFCC90;" d="M267.836,337.558c-3.756,3.1-9.784,1.99-13.47-2.476l0,0c-3.675-4.463-2.791-10.05,0.965-13.15
			l31.301-24.014c4.675-3.103,11.01-5.245,14.188-1.126c4.121,5.326-0.602,11.037-5.907,16.021L267.836,337.558z"/>
		<path style="fill:#FFCC90;" d="M255.331,321.932c-4.035,2.025-40.752,9.031-45.129,2.503c-5.748-8.542-3.577-13.827,3.882-21.078
			c4.351-4.235,9.799-8.122,17.181-16.301c16.29-18.035,9.343-21.253,5.654-24.141c-6.713-5.243-23.912,16.804-35.309,21.53
			c-15.398,6.377-35.632,14.034-35.632,14.034l-35.255-8.316l-9.515,44.017c0,0,83.43,22.111,87.828,21.694
			c3.959-0.379,47.322-10.281,58.678-18.204l-11.4-16.647C255.944,321.472,255.616,321.786,255.331,321.932z"/>
		
			<rect x="95.459" y="310.947" transform="matrix(0.223 -0.9748 0.9748 0.223 -211.3957 381.8716)" style="fill:#F2EBEC;" width="76.771" height="25.187"/>
		<path style="fill:#A83A48;" d="M95.092,357.319c-0.402-0.686-0.948-1.231-1.567-1.648l1.11-4.605
			c0.23-0.949-0.345-1.901-1.3-2.137c-0.944-0.226-1.902,0.357-2.132,1.309l-1.109,4.589c-0.672,0.081-1.338,0.293-1.963,0.653
			c-2.429,1.412-3.252,4.527-1.84,6.953c1.414,2.428,4.528,3.261,6.954,1.839C95.677,362.86,96.501,359.752,95.092,357.319z"/>
		<path style="fill:#A83A48;" d="M79.181,351.052l1.117-4.611c0.224-0.947-0.355-1.898-1.306-2.129
			c-0.949-0.226-1.902,0.35-2.132,1.301l-1.109,4.597c-0.672,0.076-1.342,0.285-1.957,0.648c-2.434,1.412-3.258,4.53-1.85,6.958
			c1.414,2.428,4.533,3.251,6.958,1.834c2.43-1.406,3.254-4.525,1.84-6.947C80.347,352.017,79.798,351.474,79.181,351.052z"/>
		<path style="fill:#A83A48;" d="M64.651,346.312l1.117-4.605c0.233-0.947-0.348-1.898-1.3-2.132
			c-0.951-0.226-1.901,0.352-2.128,1.301l-1.113,4.592c-0.675,0.075-1.342,0.285-1.965,0.648c-2.43,1.417-3.253,4.539-1.836,6.966
			c1.409,2.425,4.529,3.253,6.95,1.836c2.434-1.417,3.256-4.53,1.842-6.958C65.822,347.269,65.273,346.728,64.651,346.312z"/>
		<path style="fill:#702730;" d="M74.218,351.562c-2.407,1.398-3.213,4.477-1.822,6.875c1.398,2.406,4.479,3.213,6.872,1.823
			c2.405-1.398,3.222-4.477,1.824-6.883C79.692,350.982,76.619,350.17,74.218,351.562z"/>
		<path style="fill:#702730;" d="M59.783,346.96c-2.404,1.398-3.219,4.476-1.821,6.883c1.391,2.401,4.478,3.21,6.873,1.815
			c2.398-1.398,3.214-4.482,1.82-6.869C65.257,346.387,62.181,345.57,59.783,346.96z"/>
		<path style="fill:#702730;" d="M88.529,356.125c-2.403,1.398-3.217,4.482-1.818,6.875c1.393,2.401,4.473,3.218,6.872,1.828
			c2.401-1.404,3.214-4.482,1.818-6.875C94.009,355.555,90.93,354.735,88.529,356.125z"/>
		<path style="fill:#FFE0BC;" d="M237.689,272.018c0,0-1.14-1.734-3.022-3.52l0,0c-0.006-0.005-0.011-0.005-0.014-0.013
			c-0.008,0-0.011-0.011-0.024-0.016l0,0c-1.874-1.769-3.683-2.807-3.683-2.807c-2.129,2.248-5.35,5.573-5.289,8.1
			c0.027,1.127,0.67,2.073,1.406,2.727v0.005c0,0.014,0.006,0.014,0.011,0.019c0.005,0.005,0.014,0.016,0.019,0.022l0.005-0.006
			c0.699,0.699,1.686,1.275,2.807,1.242C232.427,277.691,235.565,274.274,237.689,272.018z"/>
		<path style="fill:#FFE0BC;" d="M300.109,305.757c0,0-0.597-1.202-1.78-2.291l0,0c-0.006,0-0.008,0-0.008-0.014
			c-0.011,0-0.011-0.005-0.019-0.005l0,0c-1.186-1.086-2.455-1.594-2.455-1.594c-2.145,2.231-5.385,5.546-5.807,7.593
			c-0.191,0.906,0.148,1.557,0.621,1.954h-0.003c0.003,0.014,0.008,0.008,0.011,0.014c0.005,0.003,0.005,0.003,0.005,0.014
			l0.005-0.005c0.438,0.433,1.126,0.726,2.043,0.476C294.786,311.366,297.964,307.992,300.109,305.757z"/>
		<path style="fill:#FFE0BC;" d="M211.688,284.171c0.242-0.212,0.797,0.014,1.245,0.508l5.18,5.732
			c0.449,0.497,0.614,1.073,0.38,1.291l0,0c-0.237,0.212-0.795-0.014-1.242-0.516l-5.177-5.724
			C211.621,284.969,211.453,284.383,211.688,284.171L211.688,284.171z"/>
		<path style="fill:#FFE0BC;" d="M213.478,282.563c0.243-0.215,0.8,0.006,1.246,0.497l5.18,5.732
			c0.446,0.497,0.619,1.076,0.382,1.291l0,0c-0.239,0.218-0.798-0.016-1.25-0.514l-5.171-5.732
			C213.412,283.348,213.242,282.765,213.478,282.563L213.478,282.563z"/>
		<path style="fill:#FFE0BC;" d="M260.813,331.783c0.269-0.167,0.71,0.035,0.984,0.449l3.14,4.823
			c0.269,0.417,0.269,0.898,0.003,1.065l0,0c-0.272,0.18-0.712-0.032-0.984-0.449l-3.14-4.815
			C260.542,332.444,260.547,331.957,260.813,331.783L260.813,331.783z"/>
		<path style="fill:#FFE0BC;" d="M262.854,330.503c0.274-0.169,0.715,0.027,0.987,0.444l3.138,4.821
			c0.274,0.419,0.274,0.898,0.003,1.067l0,0c-0.272,0.172-0.712-0.029-0.984-0.449l-3.14-4.818
			C262.585,331.145,262.585,330.67,262.854,330.503L262.854,330.503z"/>
	</g>
</g>
</svg>
